<svg id="svg" version="1.1" xmlns="http://www.w3.org/2000/svg" xmlns:xlink="http://www.w3.org/1999/xlink" width="400" height="400" viewBox="0, 0, 400,400"><g id="svgg"><path id="path0" d="M178.400 138.551 C 178.400 139.074,178.687 139.740,179.037 140.031 C 179.387 140.321,180.737 142.680,182.037 145.273 L 184.400 149.988 184.400 164.182 C 184.400 180.136,184.503 179.526,181.214 183.000 C 180.381 183.880,178.938 186.062,178.008 187.849 C 176.709 190.346,175.471 191.935,172.659 194.716 C 167.505 199.813,167.093 200.000,161.000 200.000 C 155.354 200.000,154.493 200.299,151.145 203.419 C 150.125 204.370,148.111 205.723,146.671 206.425 C 143.558 207.943,142.506 208.990,140.842 212.228 C 139.730 214.391,139.337 214.779,137.238 215.782 C 135.422 216.650,133.596 218.202,129.273 222.554 C 121.168 230.712,120.726 231.884,123.600 237.600 L 125.200 240.782 125.200 246.961 L 125.200 253.140 126.800 256.449 C 127.815 258.548,128.400 260.320,128.400 261.295 C 128.400 267.483,135.086 271.978,144.310 271.991 L 150.420 272.000 153.200 273.400 L 155.980 274.800 162.335 274.800 L 168.689 274.800 171.800 276.400 L 174.911 278.000 199.992 278.000 L 225.073 278.000 228.303 276.400 L 231.534 274.800 237.777 274.800 L 244.020 274.800 246.800 273.400 L 249.580 272.000 255.803 272.000 C 263.171 272.000,264.308 271.604,268.059 267.732 C 270.733 264.973,272.000 262.628,272.000 260.440 C 272.000 259.408,272.491 257.891,273.398 256.124 L 274.796 253.400 274.798 247.091 L 274.800 240.782 276.400 237.600 C 279.269 231.893,278.894 230.813,271.284 222.873 C 266.809 218.204,265.567 217.145,263.243 216.021 C 260.676 214.779,260.420 214.533,259.348 212.280 C 257.874 209.184,256.585 207.920,253.301 206.353 C 251.838 205.654,249.822 204.320,248.820 203.387 C 245.508 200.299,244.638 200.000,238.980 200.000 C 232.918 200.000,232.457 199.778,226.951 194.215 C 224.224 191.460,222.972 189.836,221.993 187.785 C 221.272 186.276,219.933 184.222,219.015 183.220 C 215.444 179.323,215.600 180.191,215.600 164.247 L 215.600 150.140 217.914 145.570 C 219.187 143.057,220.648 140.432,221.161 139.738 C 223.256 136.905,217.736 136.558,212.600 139.200 C 210.435 140.313,208.982 140.800,207.822 140.800 C 206.712 140.800,205.225 141.268,203.377 142.199 C 201.850 142.968,200.330 143.598,200.000 143.598 C 199.670 143.598,198.150 142.968,196.623 142.199 C 194.799 141.280,193.283 140.800,192.208 140.800 C 191.076 140.800,189.621 140.306,187.497 139.200 C 183.571 137.156,178.400 136.787,178.400 138.551 M210.996 180.398 C 216.456 183.162,216.767 183.403,218.005 185.810 L 218.926 187.600 218.001 189.398 C 215.333 194.586,206.138 200.000,199.996 200.000 C 193.943 200.000,184.641 194.376,181.940 189.083 L 181.129 187.493 182.023 185.756 C 183.222 183.423,183.570 183.152,188.839 180.433 L 193.400 178.080 199.830 178.040 L 206.260 178.000 210.996 180.398 M205.025 203.967 C 205.891 204.389,207.230 205.396,208.000 206.205 C 209.906 208.207,218.247 212.400,220.323 212.400 C 221.954 212.400,230.209 208.619,231.864 207.114 C 233.977 205.192,235.246 208.004,233.650 211.072 C 231.718 214.789,218.949 226.561,214.238 228.970 L 209.875 231.200 200.055 231.200 L 190.235 231.200 185.818 228.963 C 180.854 226.450,168.136 214.676,166.343 210.934 C 164.888 207.900,166.007 205.196,167.979 206.981 C 169.665 208.507,178.097 212.400,179.716 212.400 C 181.788 212.400,189.517 208.554,191.800 206.388 C 195.278 203.087,201.050 202.031,205.025 203.967 " stroke="none" fill="#f3fbeb" fill-rule="evenodd"></path><path id="path1" d="M120.000 107.177 C 118.072 108.199,113.807 112.731,113.035 114.578 C 112.492 115.878,112.400 118.346,112.400 131.619 L 112.400 147.140 110.778 150.470 L 109.156 153.800 109.279 158.200 C 109.397 162.382,109.478 162.745,110.902 165.522 C 111.880 167.429,112.400 168.988,112.400 170.009 C 112.400 171.023,112.964 172.728,114.000 174.849 C 115.031 176.958,115.600 178.676,115.600 179.677 C 115.600 181.648,116.734 183.876,118.943 186.248 C 120.021 187.405,121.703 190.173,123.386 193.555 C 126.003 198.816,126.161 199.034,128.077 200.000 C 131.434 201.693,131.623 202.455,129.655 206.385 C 128.583 208.527,128.000 210.230,128.000 211.217 C 128.000 212.176,127.408 213.965,126.400 216.049 C 124.593 219.785,124.079 224.549,125.427 225.066 C 125.938 225.262,125.808 225.575,124.729 226.753 C 124.000 227.549,126.103 225.582,129.402 222.383 C 133.739 218.176,135.980 216.303,137.493 215.617 C 139.324 214.788,139.744 214.364,140.838 212.235 C 142.506 208.990,143.557 207.943,146.671 206.425 C 148.111 205.723,150.125 204.370,151.145 203.419 C 154.493 200.299,155.354 200.000,161.000 200.000 C 167.093 200.000,167.505 199.813,172.659 194.716 C 175.471 191.935,176.709 190.346,178.008 187.849 C 178.938 186.062,180.381 183.880,181.214 183.000 C 184.503 179.526,184.400 180.136,184.400 164.182 L 184.400 149.988 182.037 145.273 C 180.737 142.680,179.387 140.321,179.037 140.031 C 178.687 139.740,178.387 139.029,178.372 138.451 C 178.349 137.592,178.291 137.535,178.053 138.139 C 177.789 138.810,177.714 138.819,177.232 138.239 C 176.224 137.024,172.232 137.389,168.911 139.000 C 167.324 139.770,165.833 140.400,165.597 140.400 C 163.175 140.400,152.072 129.436,150.002 125.000 C 148.567 121.926,137.321 109.946,133.622 107.551 C 131.327 106.066,122.552 105.825,120.000 107.177 M266.378 107.551 C 262.678 109.946,251.432 121.926,249.998 125.000 C 248.442 128.336,238.741 138.564,235.932 139.831 L 234.343 140.547 231.365 139.074 C 224.694 135.773,222.261 136.912,218.049 145.308 L 215.595 150.200 215.598 164.277 C 215.600 180.187,215.445 179.324,219.015 183.220 C 219.933 184.222,221.272 186.276,221.993 187.785 C 222.972 189.836,224.224 191.460,226.951 194.215 C 232.457 199.778,232.918 200.000,238.980 200.000 C 244.638 200.000,245.508 200.299,248.820 203.387 C 249.822 204.320,251.838 205.654,253.301 206.353 C 256.586 207.920,257.874 209.183,259.350 212.285 C 260.409 214.510,260.693 214.790,262.950 215.830 C 264.918 216.737,266.501 218.063,271.001 222.579 C 274.081 225.671,276.003 227.549,275.272 226.754 C 274.138 225.520,274.041 225.270,274.614 225.050 C 275.890 224.560,275.240 219.181,273.476 215.634 C 272.543 213.758,272.000 212.101,272.000 211.125 C 272.000 210.115,271.432 208.452,270.356 206.312 C 268.398 202.419,268.586 201.676,271.952 199.997 C 273.913 199.019,274.033 198.853,276.741 193.397 C 278.539 189.775,280.040 187.306,280.995 186.400 C 282.908 184.586,284.400 181.636,284.400 179.669 C 284.400 178.636,284.940 177.062,286.000 175.000 C 287.105 172.852,287.600 171.379,287.600 170.240 C 287.600 169.121,288.111 167.565,289.190 165.396 C 291.577 160.598,291.580 155.210,289.200 150.302 L 287.600 147.003 287.600 131.314 C 287.600 113.319,287.831 114.554,283.666 110.269 C 280.205 106.707,279.380 106.400,273.294 106.400 C 268.313 106.400,268.103 106.435,266.378 107.551 M189.965 140.526 C 190.144 140.705,191.081 140.791,192.046 140.718 L 193.800 140.585 191.719 140.393 C 190.575 140.287,189.785 140.347,189.965 140.526 M208.200 140.400 L 206.200 140.674 208.076 140.737 C 209.108 140.772,210.064 140.620,210.200 140.400 C 210.336 140.180,210.392 140.028,210.324 140.063 C 210.256 140.097,209.300 140.249,208.200 140.400 M173.488 166.441 C 177.045 168.418,178.000 170.229,178.000 175.000 C 178.000 181.512,175.149 184.400,168.723 184.400 C 162.420 184.400,159.600 181.495,159.600 175.004 C 159.600 170.178,160.517 168.549,164.600 166.123 C 166.031 165.272,171.754 165.477,173.488 166.441 M235.639 166.257 C 244.924 170.740,241.603 184.400,231.228 184.400 C 224.917 184.400,222.000 181.429,222.000 175.000 C 222.000 170.278,223.002 168.499,227.000 166.123 C 228.241 165.385,234.018 165.475,235.639 166.257 M193.062 178.300 C 192.960 178.465,196.082 178.600,200.000 178.600 C 203.918 178.600,207.040 178.465,206.938 178.300 C 206.836 178.135,203.714 178.000,200.000 178.000 C 196.286 178.000,193.164 178.135,193.062 178.300 M218.200 187.600 C 218.200 188.218,218.335 188.640,218.500 188.538 C 218.665 188.436,218.800 188.014,218.800 187.600 C 218.800 187.186,218.665 186.764,218.500 186.662 C 218.335 186.560,218.200 186.982,218.200 187.600 M214.786 193.100 L 212.600 195.400 214.900 193.214 C 216.165 192.011,217.200 190.976,217.200 190.914 C 217.200 190.617,216.818 190.963,214.786 193.100 M205.200 204.073 C 209.097 207.609,209.780 208.152,208.200 206.455 C 207.320 205.510,206.240 204.547,205.800 204.314 C 205.360 204.082,205.090 203.973,205.200 204.073 M191.781 206.500 L 190.200 208.200 191.900 206.619 C 193.481 205.148,193.784 204.800,193.481 204.800 C 193.416 204.800,192.651 205.565,191.781 206.500 M278.093 232.800 C 278.093 233.570,278.175 233.885,278.276 233.500 C 278.376 233.115,278.376 232.485,278.276 232.100 C 278.175 231.715,278.093 232.030,278.093 232.800 M124.963 246.800 C 124.963 250.430,125.023 251.915,125.098 250.100 C 125.172 248.285,125.172 245.315,125.098 243.500 C 125.023 241.685,124.963 243.170,124.963 246.800 M274.963 246.800 C 274.963 250.430,275.023 251.915,275.098 250.100 C 275.172 248.285,275.172 245.315,275.098 243.500 C 275.023 241.685,274.963 243.170,274.963 246.800 M128.109 261.200 C 128.109 262.190,128.187 262.595,128.282 262.100 C 128.378 261.605,128.378 260.795,128.282 260.300 C 128.187 259.805,128.109 260.210,128.109 261.200 M131.800 268.000 C 133.106 269.320,134.265 270.400,134.375 270.400 C 134.485 270.400,133.506 269.320,132.200 268.000 C 130.894 266.680,129.735 265.600,129.625 265.600 C 129.515 265.600,130.494 266.680,131.800 268.000 M267.787 268.100 L 265.400 270.600 267.900 268.213 C 270.222 265.995,270.583 265.600,270.287 265.600 C 270.226 265.600,269.101 266.725,267.787 268.100 M159.500 275.098 C 161.315 275.172,164.285 275.172,166.100 275.098 C 167.915 275.023,166.430 274.963,162.800 274.963 C 159.170 274.963,157.685 275.023,159.500 275.098 M234.300 275.098 C 236.115 275.172,239.085 275.172,240.900 275.098 C 242.715 275.023,241.230 274.963,237.600 274.963 C 233.970 274.963,232.485 275.023,234.300 275.098 M187.500 278.300 C 194.375 278.361,205.625 278.361,212.500 278.300 C 219.375 278.238,213.750 278.188,200.000 278.188 C 186.250 278.188,180.625 278.238,187.500 278.300 " stroke="none" fill="#fb8b34" fill-rule="evenodd"></path><path id="path2" d="M0.000 200.000 L 0.000 400.000 200.000 400.000 L 400.000 400.000 400.000 200.000 L 400.000 0.000 200.000 0.000 L 0.000 0.000 0.000 200.000 M133.622 107.551 C 137.321 109.946,148.567 121.926,150.002 125.000 C 152.072 129.436,163.175 140.400,165.597 140.400 C 165.833 140.400,167.324 139.770,168.911 139.000 C 172.256 137.378,175.933 137.053,177.269 138.262 C 177.949 138.878,178.000 138.878,178.000 138.262 C 178.000 136.866,184.328 137.352,187.600 139.000 C 189.362 139.887,190.953 140.400,191.944 140.400 C 192.974 140.400,194.621 140.957,196.771 142.034 L 200.035 143.667 203.425 142.034 C 205.409 141.077,207.396 140.400,208.217 140.400 C 209.024 140.400,210.801 139.805,212.400 139.000 C 215.424 137.477,221.676 136.898,222.117 138.100 C 222.263 138.500,222.406 138.500,222.830 138.100 C 223.985 137.011,228.158 137.487,231.365 139.074 L 234.343 140.547 235.932 139.831 C 238.741 138.564,248.442 128.336,249.998 125.000 C 251.118 122.600,252.255 121.235,257.952 115.451 C 266.938 106.328,266.817 106.400,273.294 106.400 C 279.380 106.400,280.205 106.707,283.666 110.269 C 287.831 114.554,287.600 113.319,287.600 131.314 L 287.600 147.003 289.200 150.302 C 291.580 155.210,291.577 160.598,289.190 165.396 C 288.111 167.565,287.600 169.121,287.600 170.240 C 287.600 171.379,287.105 172.852,286.000 175.000 C 284.940 177.062,284.400 178.636,284.400 179.669 C 284.400 181.636,282.908 184.586,280.995 186.400 C 280.040 187.306,278.539 189.775,276.741 193.397 C 274.033 198.853,273.913 199.019,271.952 199.997 C 268.586 201.676,268.398 202.419,270.356 206.312 C 271.432 208.452,272.000 210.115,272.000 211.125 C 272.000 212.099,272.543 213.761,273.473 215.634 C 275.218 219.146,275.849 224.136,274.659 225.007 C 274.098 225.417,274.170 225.610,275.262 226.636 C 278.547 229.721,278.975 232.652,276.800 237.151 L 275.200 240.460 275.190 246.730 L 275.180 253.000 273.590 256.196 C 272.496 258.395,272.000 259.915,272.000 261.073 C 272.000 263.159,270.915 265.132,268.236 267.919 C 264.602 271.700,263.728 272.000,256.341 272.000 L 249.982 272.000 246.800 273.600 L 243.618 275.200 237.439 275.200 L 231.260 275.200 227.951 276.800 L 224.642 278.400 199.967 278.400 L 175.293 278.400 172.096 276.800 L 168.899 275.200 162.728 275.200 L 156.558 275.200 153.249 273.600 L 149.940 272.000 143.757 272.000 C 134.552 272.000,128.000 267.375,128.000 260.877 C 128.000 259.876,127.431 258.158,126.400 256.049 L 124.800 252.775 124.800 246.577 L 124.800 240.380 123.400 237.600 C 121.161 233.154,121.486 230.299,124.628 226.821 C 125.722 225.610,125.885 225.241,125.406 225.058 C 124.080 224.549,124.609 219.752,126.400 216.049 C 127.408 213.965,128.000 212.176,128.000 211.217 C 128.000 210.230,128.583 208.527,129.655 206.385 C 131.623 202.455,131.434 201.693,128.077 200.000 C 126.161 199.034,126.003 198.816,123.386 193.555 C 121.703 190.173,120.021 187.405,118.943 186.248 C 116.734 183.876,115.600 181.648,115.600 179.677 C 115.600 178.676,115.031 176.958,114.000 174.849 C 112.964 172.728,112.400 171.023,112.400 170.009 C 112.400 168.988,111.880 167.429,110.902 165.522 C 109.478 162.745,109.397 162.382,109.279 158.200 L 109.156 153.800 110.778 150.470 L 112.400 147.140 112.400 131.619 C 112.400 113.725,112.258 114.530,116.135 110.488 C 119.791 106.678,120.407 106.439,126.622 106.418 C 131.710 106.400,131.889 106.430,133.622 107.551 M164.600 166.123 C 160.517 168.549,159.600 170.178,159.600 175.004 C 159.600 181.495,162.420 184.400,168.723 184.400 C 175.149 184.400,178.000 181.512,178.000 175.000 C 178.000 170.229,177.045 168.418,173.488 166.441 C 171.754 165.477,166.031 165.272,164.600 166.123 M227.000 166.123 C 220.108 170.218,219.839 179.850,226.512 183.559 C 234.757 188.143,244.142 178.938,239.840 170.487 C 237.700 166.283,230.721 163.911,227.000 166.123 M189.000 180.608 C 178.579 185.756,179.600 191.224,192.170 197.586 C 198.996 201.041,201.003 201.041,207.830 197.586 C 220.434 191.208,221.466 185.753,211.035 180.643 L 206.458 178.400 199.929 178.418 L 193.400 178.435 189.000 180.608 M195.200 204.063 C 194.430 204.506,193.080 205.556,192.200 206.396 C 189.705 208.778,182.102 212.400,179.599 212.400 C 177.343 212.400,170.387 209.246,168.285 207.270 C 166.980 206.043,165.882 206.396,165.676 208.110 C 165.276 211.441,178.984 225.419,186.142 228.980 L 190.605 231.200 200.033 231.200 L 209.460 231.200 214.230 228.789 C 221.537 225.096,234.400 212.123,234.400 208.446 C 234.400 206.263,233.719 205.970,231.873 207.357 C 228.924 209.574,222.495 212.400,220.401 212.400 C 217.899 212.400,210.297 208.778,207.800 206.397 C 204.309 203.068,198.725 202.033,195.200 204.063 " stroke="none" fill="#3c2424" fill-rule="evenodd"></path></g></svg>